HIERARCHY
ROOT Hips
{
	OFFSET -3.958830 18.904000 13.208200
	CHANNELS 6 Xposition Yposition Zposition Zrotation Yrotation Xrotation 
	JOINT LHipJoint
	{
		OFFSET 0.000000 0.000000 0.000000
		CHANNELS 3 Zrotation Yrotation Xrotation
		JOINT LeftUpLeg
		{
			OFFSET 1.800000 -1.400000 0.085000
			CHANNELS 3 Zrotation Yrotation Xrotation
			JOINT LeftLeg
			{
				OFFSET 2.215000 -6.000000 0.000000
				CHANNELS 3 Zrotation Yrotation Xrotation
				JOINT LeftFoot
				{
					OFFSET 2.500000 -6.900000 0.000000
					CHANNELS 3 Zrotation Yrotation Xrotation
					JOINT LeftToeBase
					{
						OFFSET 0.200000 -0.500000 1.950000
						CHANNELS 3 Zrotation Yrotation Xrotation
						End Site
						{
							OFFSET 0.000000 0.000000 0.000000
						}
					}
				}
			}
		}
	}
	JOINT RHipJoint
	{
		OFFSET 0.000000 0.000000 0.000000
		CHANNELS 3 Zrotation Yrotation Xrotation
		JOINT RightUpLeg
		{
			OFFSET -1.800000 -1.400000 0.085000
			CHANNELS 3 Zrotation Yrotation Xrotation
			JOINT RightLeg
			{
				OFFSET -2.215000 -6.000000 0.000000
				CHANNELS 3 Zrotation Yrotation Xrotation
				JOINT RightFoot
				{
					OFFSET -2.500000 -6.900000 0.000000
					CHANNELS 3 Zrotation Yrotation Xrotation
					JOINT RightToeBase
					{
						OFFSET -0.200000 -0.500000 1.950000
						CHANNELS 3 Zrotation Yrotation Xrotation
						End Site
						{
							OFFSET 0.000000 0.000000 0.000000
						}
					}
				}
			}
		}
	}
	JOINT LowerBack
	{
		OFFSET 0.000000 0.000000 0.000000
		CHANNELS 3 Zrotation Yrotation Xrotation
		JOINT Spine
		{
			OFFSET -0.087000 1.940000 -0.288900
			CHANNELS 3 Zrotation Yrotation Xrotation
			JOINT Spine1
			{
				OFFSET 0.000000 1.950000 0.060000
				CHANNELS 3 Zrotation Yrotation Xrotation
				JOINT Neck
				{
					OFFSET 0.000000 0.000000 0.000000
					CHANNELS 3 Zrotation Yrotation Xrotation
					JOINT Neck1
					{
						OFFSET 0.000000 1.600000 0.340000
						CHANNELS 3 Zrotation Yrotation Xrotation
						JOINT Head
						{
							OFFSET 0.000000 1.667000 -0.240000
							CHANNELS 3 Zrotation Yrotation Xrotation
							End Site
							{
								OFFSET 0.000000 0.000000 0.000000
							}
						}
					}
				}
				JOINT LeftShoulder
				{
					OFFSET 0.000000 0.000000 0.000000
					CHANNELS 3 Zrotation Yrotation Xrotation
					JOINT LeftArm
					{
						OFFSET 2.700000 1.550000 -0.730000
						CHANNELS 3 Zrotation Yrotation Xrotation
						JOINT LeftForeArm
						{
							OFFSET 5.450000 0.000000 0.000000
							CHANNELS 3 Zrotation Yrotation Xrotation
							JOINT LeftHand
							{
								OFFSET 3.450000 0.000000 0.000000
								CHANNELS 3 Zrotation Yrotation Xrotation
								JOINT LeftHandIndex1
								{
									OFFSET 0.750000 0.000000 0.000000
									CHANNELS 3 Zrotation Yrotation Xrotation
									End Site
									{
										OFFSET 0.000000 0.000000 0.000000
									}
								}
							}
						}
					}
				}
				JOINT RightShoulder
				{
					OFFSET 0.000000 0.000000 0.000000
					CHANNELS 3 Zrotation Yrotation Xrotation
					JOINT RightArm
					{
						OFFSET -2.700000 1.550000 -0.730000
						CHANNELS 3 Zrotation Yrotation Xrotation
						JOINT RightForeArm
						{
							OFFSET -5.450000 0.000000 0.000000
							CHANNELS 3 Zrotation Yrotation Xrotation
							JOINT RightHand
							{
								OFFSET -3.450000 0.000000 0.000000
								CHANNELS 3 Zrotation Yrotation Xrotation
								JOINT RightHandIndex1
								{
									OFFSET -0.750000 0.000000 0.000000
									CHANNELS 3 Zrotation Yrotation Xrotation
									End Site
									{
										OFFSET 0.000000 0.000000 0.000000
									}
								}
							}
						}
					}
				}
			}
		}
	}
}
MOTION
Frames: 5
Frame Time: 0.016667
-2.921360 15.992000 -1.349120 151.945521 64.676123 134.977318 -14.766472 14.123207 3.641312 12.949718 -3.686828 -4.814229 -16.300328 13.915313 31.913714 0.519893 7.931699 1.663242 0.061630 -0.025070 0.259870 18.407180 -10.565179 3.013980 4.444008 2.705310 -20.861261 -2.401707 -4.930109 32.332395 -0.418746 -3.590345 3.050663 -0.197710 -0.320760 -0.248500 -3.120344 -4.467198 -8.386476 9.935754 -11.789063 24.448234 -8.820559 -7.868167 0.848355 6.017636 -3.592282 -20.585119 -16.507512 8.716179 56.374090 -12.399600 8.247790 -13.877610 -24.270762 -22.442093 10.740756 -23.628620 2.296466 -3.479908 11.132403 -14.208467 -1.483222 -3.159193 2.666427 0.773010 -0.411630 0.241080 -0.183610 12.300874 25.755091 12.577353 41.355362 3.585418 -6.353112 -15.237714 13.763552 -1.760726 2.563087 -0.896841 -0.207170 0.208380 0.077380 -0.269530 
-2.860600 15.960670 -1.432250 152.849370 67.175970 135.154562 -14.780536 14.109976 3.440840 16.184449 -2.812533 -6.621701 -14.690508 12.409656 28.219517 0.314636 7.250385 1.890176 0.033150 -0.004840 0.169710 18.421079 -10.428638 3.147065 6.268229 3.193900 -19.398576 -1.397924 -5.241387 31.744901 -0.409178 -3.663139 3.064935 -0.166310 -0.208020 -0.248290 -3.676439 -4.005461 -8.087969 14.972066 -13.230379 23.614050 -11.751790 -8.025971 4.570012 5.919750 -5.026475 -20.668702 -19.360879 9.532257 52.475708 -10.589990 7.151300 -12.744230 -24.336315 -24.564397 11.155251 -23.680513 -0.886289 -2.602784 9.925427 -12.152767 -1.236221 -3.242679 2.655425 0.681270 -0.333800 0.181360 -0.151660 12.316540 28.428277 12.767437 40.676010 6.739299 -5.857339 -14.752460 14.366699 -2.034620 2.508748 -0.919548 -0.208300 0.265840 0.108110 -0.210810 
-2.688180 15.933960 -1.603840 148.312076 73.881746 131.154086 -14.920518 13.728304 3.367480 22.332996 -1.501645 -9.277930 -14.209910 11.482956 23.274613 0.078822 6.916191 1.948660 0.007680 -0.049160 0.131970 18.417277 -9.977200 3.391400 10.708504 4.716670 -17.524795 -2.675368 -4.895496 33.459583 -0.490354 -4.011871 2.934246 -0.150680 -0.119920 -0.209570 -4.483417 -2.898213 -7.874903 23.028742 -15.129889 21.830208 -17.436539 -7.293425 7.975322 6.736967 -6.503702 -20.933511 -21.857993 10.803010 48.379128 -10.194140 6.717880 -13.581010 -25.979608 -27.081331 11.956738 -25.126814 -0.564017 -5.142546 7.657205 -21.369984 -2.096755 -3.172935 2.803166 0.661390 -0.273550 0.125680 -0.165850 11.964449 32.447717 12.580032 40.938199 13.023557 -4.425798 -13.702344 14.301277 -2.052851 2.439765 -0.927504 -0.236660 0.304550 0.183980 -0.208530 
-2.472000 15.923230 -1.801670 128.318912 80.447495 113.027948 -14.911414 13.227519 3.447421 27.792486 0.011427 -11.920366 -12.390195 10.301519 18.331088 -0.022824 6.510028 2.055774 0.077920 0.040560 0.119890 18.588745 -9.552689 3.560456 13.774622 6.369981 -16.737964 -4.359220 -4.017070 34.619392 -0.571987 -4.191801 2.891982 -0.094640 -0.082080 -0.191790 -4.853126 -1.928384 -7.954049 29.468797 -15.581175 19.787717 -22.768443 -4.756428 10.318484 8.286103 -6.901721 -22.827829 -24.082725 11.220342 47.815670 -9.043290 4.816000 -12.801420 -29.467885 -29.564720 12.825995 -27.025393 -2.157644 -7.967171 15.789264 -23.516142 -4.255682 -3.177242 2.929846 0.634100 -0.259100 0.129230 -0.093100 12.342382 37.089225 13.133329 40.651036 15.547229 -6.267824 -12.468996 22.809030 -3.265786 2.241163 -0.980508 -0.211380 0.331880 0.141000 -0.161750 
-2.213080 15.888020 -1.984920 81.509604 82.389965 68.707008 -14.608081 12.620265 3.168873 31.013531 1.451039 -15.835358 -6.322567 8.771320 17.438071 -0.065628 5.795851 2.269997 0.215010 0.301500 0.039630 19.064847 -9.690932 3.599448 14.494572 7.686328 -17.197831 -5.915899 -3.054653 37.256664 -0.606502 -4.669071 2.756811 0.081170 0.000570 -0.212230 -5.108706 -0.616562 -7.799850 33.873909 -13.351306 15.114092 -25.440114 -2.092566 15.286753 8.558298 -8.863901 -23.013482 -28.268656 10.425043 42.296543 -3.906820 0.232920 -9.939950 -26.570768 -31.998223 12.975142 -29.306941 -10.137226 -7.226841 14.545198 -23.793911 -4.185396 -3.139552 3.088254 0.411890 -0.196850 0.047470 0.033600 9.877257 40.329687 12.857203 38.586645 20.346552 -7.278625 -11.776895 29.813364 -4.568011 2.102125 -1.212734 -0.124640 0.319430 0.031760 -0.024090 
